<svg version="1.1"
      xmlns="http://www.w3.org/2000/svg"
      xmlns:xlink="http://www.w3.org/1999/xlink"  id="snapshot-08103" width="100" height="100" viewBox="0 0 100 100"><desc>This image was made on Patterninja.com</desc><defs>
<!-- image 47986 -->
<g id="transformed-47986" data-image="47986" transform="translate(40, 60) rotate(0, 10, 10)"><g><svg version="1.1" width="20px" height="20px" viewBox="0 0 20 20"><g id="original-47986"><svg xmlns="http://www.w3.org/2000/svg" viewBox="0 0 472.615 472.615" xmlns:xlink="http://www.w3.org/1999/xlink" version="1.1" preserveAspectRatio="xMidYMid meet">
  <path d="M395.039 184.811C393.661 82.609 309.279 0 205.796 0 101.427 0 16.553 83.987 16.553 186.389c-.197 2.657-5.809 66.264 39.582 130.854 19.397 27.765 32.098 54.351 38.498 81.231 5.022 20.874 7.582 42.534 7.582 64.295v9.846h219.274V384h78.769v-88.615h56.123l-61.342-110.574zm-107.421 84.974c-22.351 22.843-52.283 35.446-84.283 35.446s-61.932-12.603-84.283-35.446c-21.858-22.252-33.871-51.594-33.871-82.708 0-31.212 12.012-60.554 33.871-82.708 22.351-22.844 52.283-35.446 84.283-35.446s61.932 12.602 84.283 35.446c21.858 22.154 33.871 51.495 33.871 82.708-.001 31.114-12.013 60.455-33.871 82.708z" fill="rgba(248, 248, 248, 0.7)" stroke="none"/>
  <path d="M240.978 110.747c-13.62-11.231-31.543-15.75-49.124-12.308-23.068 4.461-41.582 22.961-46.067 46.048l19.327 3.749c2.971-15.269 15.221-27.519 30.481-30.471 12.019-2.308 23.658.587 32.851 8.173 9.072 7.48 14.274 18.509 14.274 30.249a39.208 39.208 0 0 1-17.173 32.423c-19.952 13.587-31.866 35.5-31.866 58.645h19.692c0-16.615 8.692-32.452 23.251-42.366a58.866 58.866 0 0 0 25.788-48.702c-.001-17.643-7.814-34.2-21.434-45.44z" fill="rgba(248, 248, 248, 0.7)" stroke="none"/>
  <path d="M193.487 265.817h19.692v19.692h-19.692z" fill="rgba(248, 248, 248, 0.7)" stroke="none"/>
</svg>
</g></svg></g></g>
<!-- /image 47986 -->

<!-- image 58904 -->
<g id="transformed-58904" data-image="58904" transform="translate(50, 35) rotate(46, 10, 10)"><g><svg version="1.1" width="20px" height="20px" viewBox="0 0 20 20"><g id="original-58904"><svg xmlns="http://www.w3.org/2000/svg" viewBox="0 0 239.622 239.622" xmlns:xlink="http://www.w3.org/1999/xlink" version="1.1" preserveAspectRatio="xMidYMid meet">
  <path d="M167.226 12.964C102.701-15.649 29.87 13.115 7.153 70.957a.635.635 0 0 0-.242.681C-.361 90.547-2.328 112.51 3.1 136.59c13.871 61.535 72.322 70.207 125.9 60.412-.525 26.161 31.691 40.965 54.095 40.842 1.443-.008 2.167-1.797 1.169-2.822-9.211-9.46-14.878-20.738-16.895-33.693 42.957.034 68.988-39.494 71.934-79.549 3.774-51.31-26.346-88.538-72.077-108.816zm-3.595 184.593c-2.372-.107-2.358 3.556 0 3.681.169.009.333.004.502.012 1.885 12.612 6.868 23.612 15.145 33.16-7.564-.47-15.494-2.46-22.712-5.811 1.269.493 3.355.341 4.657.448 2.071.171 4.124.279 6.203.3.517.005.667-.854.126-.931a76.857 76.857 0 0 0-5-.574c-.886-.068-1.772-.126-2.659-.188-.309-.022-2.262.004-3.202.019.119-.113.186-.282.077-.441l-.128-.189a.395.395 0 0 0-.431-.176c-1.116.285-.69 1.154.023 1.576-4.562-2.152-8.811-4.873-12.49-8.116 5.046.196 10.075.587 15.097 1.164.733.084.909-1.175.176-1.296-5.593-.927-11.205-1.296-16.862-1.328a39.564 39.564 0 0 1-5.978-7.362c4.233.734 8.464 1.557 12.732 2.041.611.069.751-.96.146-1.078-4.375-.85-8.826-1.33-13.242-1.93-.073-.01-.123.029-.185.047-1.514-2.585-2.668-5.387-3.476-8.362 5.208.309 10.469.296 15.629-.516.688-.109.533-1.281-.166-1.224-5.269.431-10.46.782-15.741.587-.45-1.925-.794-3.901-.899-5.984-.063-1.247-1.762-1.238-1.938-.067-30.849 4.418-65.254 6.892-92.144-11.629 12.42 1.634 24.857 3.175 37.309 4.526.815.088.79-1.16 0-1.264-13.076-1.726-26.184-3.254-39.298-4.669-3.889-2.883-7.343-6.137-10.445-9.653 7.468 1.66 15.022 2.972 22.658 3.512.8.057.766-1.136 0-1.227-8.035-.961-16.001-2.06-23.919-3.724-3.153-3.778-5.825-7.895-8.167-12.202 6.285.483 12.571.981 18.867 1.275.82.038.801-1.197 0-1.264-6.518-.55-13.052-.881-19.582-1.236-2.133-4.093-3.887-8.391-5.354-12.806 6.716 1.137 13.475 1.642 20.307 1.45.847-.024.852-1.316 0-1.32-6.974-.035-13.874-.616-20.765-1.598-1.133-3.608-1.987-7.31-2.717-11.042 13.993.237 28.002.624 41.992.131.814-.029.813-1.228 0-1.264-14.068-.63-28.166-.37-42.243-.268a118.205 118.205 0 0 1-1.554-12.232c.258.354.386.447.919.408a.453.453 0 0 0 .44-.44l.009-.112c3.373.466 16.593.73 17.969.633.85-.06.871-1.341 0-1.339-4.436.012-8.894-.061-13.322-.335-1.836-.114-4.827-1.221-6.054.532-.212-3.032-.332-6.068-.291-9.093.031-2.277.219-4.506.383-6.743 7.509.796 15.043 1.478 22.581 1.868.791.041.754-1.122 0-1.209-7.476-.857-14.996-1.431-22.511-1.887.385-4.557 1.131-8.986 2.047-13.345 15.859.576 31.71 1.127 47.58 1.28 1.081.01 1.073-1.63 0-1.673-15.752-.634-31.505-.873-47.267-1.087 1.035-4.601 2.409-9.055 4.005-13.392 7.756 1.395 15.539 1.8 23.43.896.888-.102.912-1.5 0-1.413-7.747.742-15.378.538-23.017-.676 2.214-5.798 4.956-11.307 8.107-16.536 8.939.861 17.854 1.895 26.812 2.542.737.053.711-1.055 0-1.134-8.738-.977-17.505-1.585-26.263-2.346 3.511-5.69 7.584-10.982 12.11-15.862 8.892.926 17.78 1.906 26.703 2.488 1.017.066.978-1.452 0-1.562-8.502-.952-17.038-1.539-25.57-2.158C48.361 20.563 69.382 9.361 93.804 5.714c48.459-7.238 109.364 18.329 132.994 62.789 25.775 48.494-.043 131.889-63.167 129.054z" fill="rgba(185, 187, 182, 0.7)" stroke="none"/>
  <path d="M119.801 36.311c-40.1-6.085-77.969 47.484-37.902 73.9.33.218.663.125.95-.055.4.424 1.07.571 1.626.021 3.05-3.011 6.077-6.044 9.277-8.897 1.7-1.516 5.578-3.623 6.304-5.955 1.153-3.702-3.437-8.669-4.237-11.933-4.591-18.721 18.893-21.308 27.693-8.522 6.073 8.824 8.407 30.224-6.987 32.045a1.616 1.616 0 0 0-1.064.571c-.156-1.676-2.885-1.543-3.111.313-1.83 15.011-2.344 30.118-1.942 45.227.028 1.055 1.009 1.83 2.045 1.558 8.097-2.119 15.846-2.608 24.119-1.596.798.098 1.698-.818 1.607-1.607-1.215-10.596-1.462-21.348-2.922-31.905.234.095.494.136.785.053 43.975-12.664 20.732-77.608-16.241-83.218zm15.231 80.822a1.13 1.13 0 0 0-.48.479c-.461-.082-1.042.216-1.096.766-.494 4.968-.342 9.896-.076 14.878.144 2.693 2.492 12.872 1.212 14.836-1.589 2.439-7.585.982-10.383 1.165-3.595.236-7.099.915-10.586 1.753-.28-13.849.387-27.586 1.709-41.371.249.317.637.519 1.194.454 23.416-2.739 16.33-39.6-1.585-45.865-8.097-2.832-17.69.016-21.612 8.018-2.892 5.9-.544 10.013.865 15.853 1.219 5.05.756 6.895-2.538 11.082-2.58 3.279-6.048 6.062-8.79 9.26-35.811-28.859 1.171-78.494 40.84-67.777 34.717 9.381 45.023 59.19 11.326 76.469z" fill="rgba(185, 187, 182, 0.7)" stroke="none"/>
  <path d="M136.941 159.028c-1.935-1.325-6.072-.443-8.141-.405-4.574.085-9.269-.099-13.783.691-.7.123-.702 1.296 0 1.417 2.646.456 5.277.472 7.959.542 3.036.078 7.844-.792 10.676.192 2.725.947 1.463 5.206 1.346 7.883-.128 2.921-.255 5.842-.39 8.763-5.202-.818-10.424-.887-15.648.035-.868.153-3.499 1.31-4.316.989-2.409-.946-1.773-4.146-1.774-6.018-.002-2.422-1.161-9.63.812-11.449 1.544-1.424-.681-3.467-2.248-2.248-2.832 2.203-1.861 6.766-1.87 9.918-.009 3.193-1.387 9.384.705 12.071 1.526 1.959 4.088 1.217 6.125.74 6.487-1.522 12.736-1.792 19.315-.631 1.044.184 2.004-.433 2.04-1.554.164-5.146.439-10.293.551-15.441.038-1.829.44-4.263-1.359-5.495z" fill="rgba(185, 187, 182, 0.7)" stroke="none"/>
  <path d="M74.881 23.731c-8.397.154-16.792-.049-25.151-.88-.64-.064-.797 1.045-.153 1.132 8.43 1.143 16.802 1.641 25.305 1.198.925-.048.938-1.467-.001-1.45z" fill="rgba(185, 187, 182, 0.7)" stroke="none"/>
  <path d="M105.953 13.696c-11.722.007-23.41-.401-35.059-1.761-.907-.106-1.13 1.475-.217 1.607 11.731 1.7 23.426 2.518 35.276 1.884 1.103-.06 1.121-1.73 0-1.73z" fill="rgba(185, 187, 182, 0.7)" stroke="none"/>
</svg>
</g></svg></g></g>
<!-- /image 58904 -->

<!-- image 93045 -->
<g id="transformed-93045" data-image="93045" transform="translate(20, 30) rotate(0, 10, 10)"><g><svg version="1.1" width="20px" height="20px" viewBox="0 0 20 20"><g id="original-93045"><svg xmlns="http://www.w3.org/2000/svg" viewBox="0 0 512 512" xmlns:xlink="http://www.w3.org/1999/xlink" version="1.1" preserveAspectRatio="xMidYMid meet">
  <path d="M256 0C114.62 0 0 114.62 0 256s114.62 256 256 256 256-114.62 256-256S397.38 0 256 0zm0 486.4C128.956 486.4 25.6 383.044 25.6 256S128.956 25.6 256 25.6 486.4 128.956 486.4 256 383.044 486.4 256 486.4z" fill="rgba(185, 187, 182, 0.7)" stroke="none"/>
  <path d="M319.258 119.578c-13.858-11.981-31.718-17.98-53.581-17.98h-4.403c-22.673 0-42.001 7.074-58.001 21.197-17.604 15.753-26.402 36.804-26.402 63.198 0 4.275 1.203 7.603 3.601 10.001 2.398 2.15 5.325 3.072 8.798 2.799 3.2 0 5.999-1.203 8.397-3.601 2.662-2.654 4.002-5.854 4.002-9.6 0-14.925 3.465-27.853 10.402-38.801 10.129-15.454 26.522-23.202 49.203-23.202 19.2 0 33.724 5.197 43.597 15.599 8.26 8.55 12.527 19.601 12.8 33.203 0 11.998-2.534 22.673-7.603 32-5.871 10.675-16.401 22.4-31.599 35.2-12.8 10.402-21.734 21.999-26.803 34.799-5.077 12.271-7.603 27.878-7.603 46.797 0 3.746 1.203 6.801 3.601 9.199 2.398 2.15 5.325 3.2 8.798 3.2 3.2 0 5.999-1.05 8.397-3.2 2.662-2.398 4.002-5.453 4.002-9.199 0-18.654 2.261-33.05 6.801-43.204 4.523-9.6 13.329-19.729 26.402-30.404 14.404-12.254 24.798-24.124 31.198-35.601 6.127-11.204 9.199-23.723 9.199-37.598-.001-23.451-7.741-41.729-23.203-54.802z" fill="rgba(185, 187, 182, 0.7)" stroke="none"/>
  <circle cx="256" cy="384" r="25.6" fill="rgba(185, 187, 182, 0.7)" stroke="none"/>
</svg>
</g></svg></g></g>
<!-- /image 93045 -->

<!-- image 88604 -->
<g id="transformed-88604" data-image="88604" transform="translate(40, 10) rotate(0, 10, 10)"><g><svg version="1.1" width="20px" height="20px" viewBox="0 0 20 20"><g id="original-88604"><svg xmlns="http://www.w3.org/2000/svg" viewBox="0 0 52.966 52.966" xmlns:xlink="http://www.w3.org/1999/xlink" version="1.1" preserveAspectRatio="xMidYMid meet">
  <path d="M51.704 51.273L36.845 35.82c3.79-3.801 6.138-9.041 6.138-14.82 0-11.58-9.42-21-21-21s-21 9.42-21 21 9.42 21 21 21c5.083 0 9.748-1.817 13.384-4.832l14.895 15.491a.998.998 0 0 0 1.414.028 1 1 0 0 0 .028-1.414zM21.983 40c-10.477 0-19-8.523-19-19s8.523-19 19-19 19 8.523 19 19-8.524 19-19 19z" fill="rgba(185, 187, 182, 0.7)" stroke="none"/>
</svg>
</g></svg></g></g>
<!-- /image 88604 -->

<!-- image 41005 -->
<g id="transformed-41005" data-image="41005" transform="translate(15, 5) rotate(231, 10, 10)"><g><svg version="1.1" width="20px" height="20px" viewBox="0 0 20 20"><g id="original-41005"><svg xmlns="http://www.w3.org/2000/svg" viewBox="0 0 490.001 490.001" xmlns:xlink="http://www.w3.org/1999/xlink" version="1.1" preserveAspectRatio="xMidYMid meet">
  <path d="M135.001 95c-33.084 0-60 26.916-60 60v50c0 33.084 26.916 60 60 60 12.939 0 24.924-4.13 34.734-11.123l-26.806-26.806 14.143-14.143 26.806 26.806c6.992-9.81 11.123-21.795 11.123-34.734v-50c0-33.084-26.917-60-60-60z" fill="rgba(185, 187, 182, 0.7)" stroke="none"/>
  <path d="M450 0H40C17.945 0 0 17.944 0 40v280c0 22.056 17.944 40 40 40h235v120a10 10 0 0 0 17.348 6.783L409.378 360H450c22.056 0 40-17.944 40-40V40c0-22.056-17.943-40-40-40zM350 95h60v20h-60V95zm-94.999 0h80v20h-80V95zM207.93 292.071l-23.913-23.913C170.464 278.699 153.459 285 135.001 285c-44.112 0-80-35.888-80-80v-50c0-44.112 35.888-80 80-80s80 35.888 80 80v50c0 18.459-6.301 35.464-16.842 49.016l23.913 23.913-14.142 14.142zM435 265H255v-20h180v20zm0-50H255v-20h180v20zm0-50H255v-20h180v20z" fill="rgba(185, 187, 182, 0.7)" stroke="none"/>
</svg>
</g></svg></g></g>
<!-- /image 41005 -->

<!-- image 69278 -->
<g id="transformed-69278" data-image="69278" transform="translate(5, 50) rotate(0, 10, 10)"><g><svg version="1.1" width="20px" height="20px" viewBox="0 0 20 20"><g id="original-69278"><svg xmlns="http://www.w3.org/2000/svg" viewBox="0 0 512 512" xmlns:xlink="http://www.w3.org/1999/xlink" version="1.1" preserveAspectRatio="xMidYMid meet">
  <path d="M453.708 186.943H288.512c.569-3.022.869-6.105.869-9.245V76.216c0-27.432-22.317-49.748-49.748-49.748H49.737C22.311 26.468 0 48.784 0 76.216v101.482c0 27.425 22.311 49.736 49.737 49.736h29.221l-1.577 36.738a8.869 8.869 0 0 0 13.681 7.826l68.856-44.565h8.724a58.065 58.065 0 0 0-2.786 17.786v122.676c0 32.134 26.143 58.278 58.278 58.278h25.178l55.514 56.695a8.864 8.864 0 0 0 9.277 2.161 8.867 8.867 0 0 0 5.884-7.491l5.097-51.365h128.625c32.143 0 58.292-26.144 58.292-58.278V245.22c-.001-32.135-26.151-58.277-58.293-58.277zM177.98 209.696h-20.683c-1.71 0-3.383.494-4.819 1.424l-56.639 36.658 1.238-28.832a8.873 8.873 0 0 0-8.86-9.25H49.738c-17.645 0-32.001-14.354-32.001-31.998V76.216c0-17.651 14.356-32.01 32-32.01h189.898c17.651 0 32.01 14.36 32.01 32.01v101.482c0 3.177-.459 6.27-1.36 9.245h-46.152c-18.771 0-35.486 8.929-46.153 22.753zm316.284 158.199c0 22.354-18.193 40.541-40.555 40.541H317.05a8.869 8.869 0 0 0-8.826 7.994l-4.013 40.459-44.834-45.788a8.865 8.865 0 0 0-6.336-2.664h-28.906c-22.354 0-40.541-18.187-40.541-40.541V245.22c0-22.354 18.187-40.54 40.541-40.54H453.71v-.001c22.362 0 40.555 18.186 40.555 40.54v122.676z" fill="rgba(185, 187, 182, 0.7)" stroke="none"/>
  <path d="M183.31 93.756c-1.206-19.413-16.755-34.962-36.168-36.167-10.807-.668-21.086 3.028-28.949 10.418-7.754 7.287-12.199 17.566-12.199 28.201-.001 4.9 3.968 8.87 8.868 8.87s8.869-3.971 8.869-8.869c0-5.846 2.347-11.27 6.609-15.277 4.258-4.002 9.836-6.005 15.702-5.641 10.329.641 18.922 9.234 19.564 19.562.484 7.802-3.346 15.177-9.997 19.249-12.391 7.585-19.789 20.693-19.789 35.065 0 4.898 3.97 8.869 8.869 8.869s8.869-3.971 8.869-8.869c0-8.149 4.229-15.601 11.312-19.937 12.265-7.507 19.332-21.101 18.44-35.474z" fill="rgba(185, 187, 182, 0.7)" stroke="none"/>
  <path d="M338.925 240.4a8.869 8.869 0 0 0-8.869 8.869v75.063a8.87 8.87 0 0 0 17.738 0v-75.063a8.87 8.87 0 0 0-8.869-8.869z" fill="rgba(185, 187, 182, 0.7)" stroke="none"/>
  <circle cx="338.916" cy="364.068" r="8.869" fill="rgba(185, 187, 182, 0.7)" stroke="none"/>
  <circle cx="144.679" cy="182.046" r="8.869" fill="rgba(185, 187, 182, 0.7)" stroke="none"/>
</svg>
</g></svg></g></g>
<!-- /image 69278 -->

<!-- image 78722 -->
<g id="transformed-78722" data-image="78722" transform="translate(70, 70) rotate(320, 10, 10)"><g><svg version="1.1" width="20px" height="20px" viewBox="0 0 20 20"><g id="original-78722"><svg xmlns="http://www.w3.org/2000/svg" viewBox="0 0 512 512" xmlns:xlink="http://www.w3.org/1999/xlink" version="1.1" preserveAspectRatio="xMidYMid meet">
  <path d="M228.8 152.1c-2.1 7-3.1 14.3-3.1 21.7 0 43.7 34.3 111.3 80.1 111.3s80.1-67.6 80.1-111.3c0-7.4-1.1-14.7-3.1-21.7 15.7-9.3 25-21.6 25-35.5 0-16.3-12.3-31.7-35.4-41.3v-6.6c0-11.4-1-21.8-5.2-31.2C362 24 350.5 14.6 337 14.6c-9.4 0-17.7 4.2-23.9 12.5-4.2 5.2-11.4 5.2-15.6 0 0 0-10.7-15.6-27-15.6-11.4 0-21.8 7.3-28.1 18.7-6.2 12.5-9.4 26-9.4 39.5V79c-19 9.5-29.1 23.1-29.1 37.5 0 14 9.2 26.3 24.9 35.6zm77 111.2c-30.2 0-59.3-56.2-59.3-90.5 0-4 0-8.1 1-12.1 37.6 13.2 91.8 13.1 116.7 0 1 4 1 8.1 1 12.1-.1 34.3-29.2 90.5-59.4 90.5zm-51-193.5c0-11.4 2.1-21.8 6.2-29.1 4.2-8.3 12.7-9.5 17.7-3.1 8.4 10.8 17.7 15.6 27 15.6 9.4 0 17.7-5.2 23.9-12.5 6.2-7.3 15.6-4.2 18.7 5.2 3.1 7.3 4.2 15.6 4.2 23.9v8.3c-12 15.2-76.7 22.7-97.8-.2v-8.1zm-10.3 27c14.6 11.4 36.4 17.7 58.3 16.6 23.9 0 45.8-6.2 61.4-18.7 14.6 6.2 22.9 14.6 22.9 21.8 0 13.5-31.2 32.3-81.1 32.3-49.9 0-81.1-18.7-81.1-32.3-.1-6.1 7.1-14.5 19.6-19.7z" fill="rgba(185, 187, 182, 0.7)" stroke="none"/>
  <path d="M376.5 309.1h-26l-44.7 44.7-44.7-44.7h-26c-21.5 0-41.6 5.4-59.2 14.9l-24.4-24.4c22.9-30.6 20.5-74.1-7.3-101.9-30.5-30.5-79.9-30.5-110.3 0-30.5 30.5-30.5 79.9 0 110.3 28.2 28.2 72.4 30.3 103.1 6.4l21.2 21.2c-28.6 22.6-46.9 57.7-46.9 97.2v67.6h389.1v-67.6c-.1-68.6-55.2-123.7-123.9-123.7zM48.6 293.3c-22.3-22.3-22.3-58.6 0-80.9 22.3-22.3 58.6-22.3 80.9 0 22.3 22.3 22.3 58.6 0 80.9-22.4 22.4-58.6 22.4-80.9 0zm430.9 186.4H132.1v-46.8c0-33.7 16.2-63.4 41.1-82.2l45.1 45.1 14.7-14.7-41.5-41.5c13.3-6.3 28.1-9.7 43.6-9.7h17.7l53.1 53.1 53.1-53.1h17.7c57.2 0 103 46.8 103 103v46.8z" fill="rgba(185, 187, 182, 0.7)" stroke="none"/>
</svg>
</g></svg></g></g>
<!-- /image 78722 -->

<!-- image 29287 -->
<g id="transformed-29287" data-image="29287" transform="translate(70, 10) rotate(315, 10, 10)"><g><svg version="1.1" width="20px" height="20px" viewBox="0 0 20 20"><g id="original-29287"><svg xmlns="http://www.w3.org/2000/svg" viewBox="0 0 490 490" xmlns:xlink="http://www.w3.org/1999/xlink" version="1.1" preserveAspectRatio="xMidYMid meet">
  <path d="M470.025 244.991c12.987-16.198 18.582-37.435 14.796-58.317-3.962-21.851-17.372-40.168-36.264-50.546 6.181-21.546 2.122-45.188-11.654-63.562-13.628-18.171-35.332-29.02-58.059-29.02-3.224 0-6.431.215-9.607.642C358.08 17.889 332.001 0 302.501 0c-23.396 0-44.237 11.137-57.502 28.389C231.734 11.137 210.893 0 187.497 0c-29.513 0-55.602 17.905-66.751 44.224a72.658 72.658 0 0 0-9.641-.64c-23.068 0-44.221 10.571-58.034 29.006-13.766 18.374-17.82 42.014-11.641 63.557-18.893 10.377-32.301 28.698-36.263 50.562-3.777 20.877 1.822 42.106 14.806 58.3C6.986 261.207 1.39 282.443 5.177 303.327c3.962 21.851 17.372 40.167 36.263 50.544-6.181 21.547-2.122 45.189 11.654 63.563 13.629 18.171 35.333 29.02 58.059 29.02 3.223 0 6.43-.215 9.606-.642 11.158 26.3 37.236 44.188 66.738 44.188 23.395 0 44.236-11.137 57.502-28.389C258.264 478.863 279.105 490 302.501 490c29.514 0 55.603-17.905 66.751-44.224 3.184.426 6.401.64 9.641.64 23.068 0 44.223-10.572 58.035-29.006 13.765-18.374 17.819-42.014 11.64-63.556 18.894-10.378 32.301-28.699 36.265-50.563 3.775-20.877-1.824-42.106-14.808-58.3zM229.999 417.5c0 23.435-19.067 42.5-42.502 42.5-20.303 0-37.839-14.45-41.697-34.359l-.204-1.052a42.983 42.983 0 0 1-.597-7.089c0-6.921 1.652-13.585 4.753-19.555 11.278 6.928 24.273 10.643 37.843 10.642l-.002-30c-11.353.001-22.026-4.42-30.054-12.448-8.026-8.026-12.447-18.697-12.448-30.049l-30 .004c.001 14.705 4.361 28.736 12.45 40.635-7.921 11.596-12.275 25.229-12.512 39.542a42.04 42.04 0 0 1-3.875.183c-13.533 0-25.947-6.203-34.058-17.018-9.982-13.313-11.259-31.352-3.253-45.955l3.562-6.497-6.065-13.821-6.733-1.972c-15.561-4.557-27.021-17.284-29.91-33.216-2.529-13.949 2.101-28.156 12.13-37.975h69.731c2.855 13.641 9.588 26.178 19.671 36.263 13.153 13.105 31.28 21.237 51.27 21.237h42.5v100zm0-130h-42.5c-22.631 0-41.183-17.782-42.429-40.108-.004-.074-.012-.147-.016-.222a43.365 43.365 0 0 1-.055-2.169c0-11.353 4.422-22.025 12.449-30.051l-21.212-21.215c-10.086 10.085-16.82 22.623-19.677 36.265h-69.75c-10.017-9.816-14.643-24.012-12.123-37.946 2.889-15.94 14.35-28.672 29.91-33.227l6.735-1.971 6.063-13.821-3.562-6.496c-8.005-14.603-6.731-32.644 3.246-45.96 8.093-10.801 20.495-16.995 34.025-16.995 1.316 0 2.625.065 3.925.185.244 14.299 4.597 27.917 12.511 39.503-8.089 11.899-12.449 25.929-12.45 40.635l30 .004c.001-11.352 4.422-22.022 12.448-30.049 8.028-8.027 18.7-12.448 30.051-12.448.003 0 .005-30 .005-30-13.573 0-26.565 3.715-37.843 10.642-3.1-5.971-4.751-12.635-4.751-19.556 0-2.373.206-4.744.593-7.063l.209-1.077C149.658 44.45 167.195 30 187.497 30c23.435 0 42.502 19.065 42.502 42.5v215zm30-214.998c0-23.437 19.066-42.502 42.502-42.502 20.303 0 37.839 14.45 41.698 34.36l.201 1.039a43.02 43.02 0 0 1 .599 7.101c0 6.921-1.651 13.585-4.753 19.555-11.278-6.927-24.273-10.643-37.843-10.642l.002 30c11.353-.001 22.025 4.42 30.054 12.449 8.026 8.024 12.446 18.696 12.448 30.048l30-.004c-.002-14.706-4.362-28.737-12.45-40.635 7.921-11.596 12.275-25.229 12.512-39.541a42.045 42.045 0 0 1 3.876-.183c13.533 0 25.946 6.203 34.058 17.018 9.981 13.313 11.259 31.352 3.253 45.955l-3.57 6.513 3.015 6.787 3.06 7.019 6.733 1.972c15.561 4.557 27.021 17.284 29.909 33.217 2.53 13.948-2.1 28.156-12.131 37.974h-69.731c-2.855-13.641-9.588-26.178-19.672-36.264-13.154-13.104-31.28-21.236-51.27-21.236h-42.5v-100zm195.312 225.443c-2.89 15.941-14.35 28.673-29.909 33.228l-6.719 1.967-6.072 13.841 3.553 6.48c8.006 14.603 6.731 32.644-3.245 45.96-8.094 10.802-20.495 16.996-34.026 16.995-1.316 0-2.624-.065-3.924-.185-.244-14.298-4.598-27.917-12.511-39.502 8.089-11.899 12.448-25.929 12.451-40.635l-30-.004c-.002 11.352-4.422 22.023-12.449 30.049-8.026 8.027-18.698 12.448-30.05 12.448-.003 0-.005 30-.005 30 13.573 0 26.566-3.715 37.843-10.642 3.101 5.97 4.753 12.634 4.753 19.555 0 2.385-.208 4.768-.599 7.101l-.202 1.041C340.34 445.55 322.803 460 302.501 460c-23.436 0-42.502-19.065-42.502-42.5v-215h42.5c22.631 0 41.183 17.782 42.429 40.108.004.074.012.147.016.222.036.719.055 1.442.055 2.169 0 11.353-4.421 22.025-12.449 30.051l21.211 21.215c10.086-10.085 16.822-22.623 19.678-36.265h69.75c10.016 9.816 14.643 24.012 12.122 37.945z" fill="rgba(185, 187, 182, 0.7)" stroke="none"/>
</svg>
</g></svg></g></g>
<!-- /image 29287 -->

<!-- image 07765 -->
<g id="transformed-07765" data-image="07765" transform="translate(20, 70) rotate(0, 10, 10)"><g><svg version="1.1" width="20px" height="20px" viewBox="0 0 20 20"><g id="original-07765"><svg xmlns="http://www.w3.org/2000/svg" viewBox="0 0 66.826 66.826" xmlns:xlink="http://www.w3.org/1999/xlink" version="1.1" preserveAspectRatio="xMidYMid meet">
  <path d="M65.66 12.409H33.755l-.002-.002-28.03-8.519a1.156 1.156 0 0 0-1.035.178 1.17 1.17 0 0 0-.472.936v7.407H1.168A1.17 1.17 0 0 0 0 13.577v41.286c0 .644.523 1.168 1.168 1.168h24.216v4.624h-4.429v2.335h24.912v-2.335H41.44v-4.624h24.218a1.17 1.17 0 0 0 1.168-1.168V13.577a1.166 1.166 0 0 0-1.166-1.168zm-59.108 0v-5.83l19.179 5.831 3.842 1.168 2.672.813V53.235L6.552 45.424V12.409zm57.94 41.288h-29.91V14.745h4.588v4.333l2.274-1.438 2.274 1.438v-4.333h20.778l-.004 38.952zM28.288 21.886l-9.105-2.77v-1.538l9.105 2.774v1.534zm0 5.864l-9.105-2.771v-1.542l9.105 2.772v1.541zm0 5.911l-18.209-5.539v-1.534l18.209 5.536v1.537zm0 5.858l-18.209-5.535v-1.54l18.209 5.535v1.54zm0 5.917l-18.209-5.538V38.36l18.209 5.534v1.542zm-16.654-22.3l.475-1.546 2.743.832.488 1.838.796.243.801.243-2.555-9.089-.876-.264-.875-.264-2.556 7.533.782.241.777.233zm1.856-5.893l.957 3.627-1.915-.582.958-3.045zm48.7 31.454H38.326v-1.605H62.19v1.605zm-.164-24.93l-2.459-2.289-5.401 5.797 2.459 2.287 5.401-5.795zM43.27 40.985l-1.006-.942 11.339-12.166 1.006.93L43.27 40.985zm11.791-11.757l1.003.938-11.341 12.17-1.004-.936 11.342-12.172zM41.698 40.65l2.463 2.287-1.756 1.889-3.019.776.56-3.063 1.752-1.889z" fill="rgba(185, 187, 182, 0.7)" stroke="none"/>
</svg>
</g></svg></g></g>
<!-- /image 07765 -->

<!-- image 87919 -->
<g id="transformed-87919" data-image="87919" transform="translate(50, 41) rotate(270, 30, 9)"><g><svg version="1.1" width="60px" height="18px" viewBox="0 0 60 18"><g id="original-87919"><svg xmlns="http://www.w3.org/2000/svg" version="1.1" baseProfile="tiny" viewBox="-63 65 128 128" xmlns:xlink="http://www.w3.org/1999/xlink" preserveAspectRatio="xMidYMid meet">
  <path d="M1.1 81.1c-20.3 0-36.7 16.5-36.7 36.7 0 12.5 6.2 23.5 15.8 30.1 1.2.8 2.4 1.6 3.7 2.3 5.2 2.7 11 4.2 17.1 4.2 5.8 0 11.3-1.4 16.3-3.8 1.3-.6 2.5-1.4 3.8-2.2 10-6.5 16.7-17.8 16.7-30.7-.1-20.2-16.6-36.6-36.7-36.6zm18.6 63.1c-1.2.8-2.4 1.6-3.7 2.3-4.5 2.3-9.6 3.7-15 3.7-5.8 0-11.2-1.5-15.9-4.2-1.3-.7-2.5-1.6-3.7-2.4-7.8-5.9-12.9-15.3-12.9-25.9 0-17.9 14.6-32.5 32.5-32.5s32.5 14.6 32.5 32.5c-.1 11-5.4 20.7-13.8 26.5zm-62-16c-1.5-2.3-4.5-3.1-6.9-1.6-2.3 1.5-3.1 4.5-1.6 6.9l11.3 17.8c.5.7.3 1.7-.5 2.2-.8.5-1.8.3-2.3-.5l-11.2-17.7c-1.3-1.9-1.6-4.1-1.1-6.2.5-2.1 1.9-4 3.7-5.2.8-.6 1.9-.9 2.8-1.2l4.6-20.5c.6-2.7-1.1-5.4-3.7-6-2.7-.6-5.4 1.2-6 3.8l-7.6 33.3c-.9 3.9-.4 8.5 1.9 12.3l9.7 15.4c1.3 1.9 1.6 4.2 1.1 6.2l-15 17.2h22.8l13.9-22.5c2-4 .3-8.1-2-11.8l-13.9-21.9zM50 167.4c-.4-2.1-.1-4.3 1.1-6.2l9.7-15.4c2.3-3.8 2.8-8.4 1.9-12.3l-7.6-33.3c-.6-2.6-3.3-4.4-6-3.8-2.6.6-4.3 3.3-3.7 6l4.6 20.5c1.1.2 2 .6 2.8 1.2 1.8 1.2 3.3 3.1 3.7 5.2.5 2.1.1 4.4-1.1 6.2L44.3 153c-.5.8-1.5 1.1-2.3.5-.8-.5-1.1-1.5-.5-2.2l11.2-17.8c1.5-2.3.7-5.4-1.6-6.9s-5.4-.7-6.9 1.6l-13.9 22.2c-2.3 3.7-4 7.8-2 11.8l13.9 22.5H65l-15-17.3zm-48.9-9.8c-6.3 0-12.7-1.5-18.4-4.4l-5.9 16.1h47.7l-6-15.7c-5.5 2.6-11.3 4-17.4 4zM-23 103.7l2.7 1.6c3.2-5.4 8.1-9.4 14-11.3l-.9-3.1c-6.6 2.2-12.2 6.7-15.8 12.8zm-4 14.6h3.2c0-2.4.3-4.9 1.1-7.2l-3.1-.8c-.8 2.5-1.2 5.3-1.2 8z" fill="rgba(185, 187, 182, 0.7)" stroke="none"/>
</svg>
</g></svg></g></g>
<!-- /image 87919 -->
</defs><rect x="0" y="0" width="100" height="100" fill="rgba(255, 255, 255, 0)"></rect><use xlink:href="#transformed-47986" transform="translate(-100, -100)"></use><use xlink:href="#transformed-47986" transform="translate(0, -100)"></use><use xlink:href="#transformed-47986" transform="translate(100, -100)"></use><use xlink:href="#transformed-47986" transform="translate(-100, 0)"></use><use xlink:href="#transformed-47986" transform="translate(0, 0)"></use><use xlink:href="#transformed-47986" transform="translate(100, 0)"></use><use xlink:href="#transformed-47986" transform="translate(-100, 100)"></use><use xlink:href="#transformed-47986" transform="translate(0, 100)"></use><use xlink:href="#transformed-47986" transform="translate(100, 100)"></use><use xlink:href="#transformed-58904" transform="translate(-100, -100)"></use><use xlink:href="#transformed-58904" transform="translate(0, -100)"></use><use xlink:href="#transformed-58904" transform="translate(100, -100)"></use><use xlink:href="#transformed-58904" transform="translate(-100, 0)"></use><use xlink:href="#transformed-58904" transform="translate(0, 0)"></use><use xlink:href="#transformed-58904" transform="translate(100, 0)"></use><use xlink:href="#transformed-58904" transform="translate(-100, 100)"></use><use xlink:href="#transformed-58904" transform="translate(0, 100)"></use><use xlink:href="#transformed-58904" transform="translate(100, 100)"></use><use xlink:href="#transformed-93045" transform="translate(-100, -100)"></use><use xlink:href="#transformed-93045" transform="translate(0, -100)"></use><use xlink:href="#transformed-93045" transform="translate(100, -100)"></use><use xlink:href="#transformed-93045" transform="translate(-100, 0)"></use><use xlink:href="#transformed-93045" transform="translate(0, 0)"></use><use xlink:href="#transformed-93045" transform="translate(100, 0)"></use><use xlink:href="#transformed-93045" transform="translate(-100, 100)"></use><use xlink:href="#transformed-93045" transform="translate(0, 100)"></use><use xlink:href="#transformed-93045" transform="translate(100, 100)"></use><use xlink:href="#transformed-88604" transform="translate(-100, -100)"></use><use xlink:href="#transformed-88604" transform="translate(0, -100)"></use><use xlink:href="#transformed-88604" transform="translate(100, -100)"></use><use xlink:href="#transformed-88604" transform="translate(-100, 0)"></use><use xlink:href="#transformed-88604" transform="translate(0, 0)"></use><use xlink:href="#transformed-88604" transform="translate(100, 0)"></use><use xlink:href="#transformed-88604" transform="translate(-100, 100)"></use><use xlink:href="#transformed-88604" transform="translate(0, 100)"></use><use xlink:href="#transformed-88604" transform="translate(100, 100)"></use><use xlink:href="#transformed-41005" transform="translate(-100, -100)"></use><use xlink:href="#transformed-41005" transform="translate(0, -100)"></use><use xlink:href="#transformed-41005" transform="translate(100, -100)"></use><use xlink:href="#transformed-41005" transform="translate(-100, 0)"></use><use xlink:href="#transformed-41005" transform="translate(0, 0)"></use><use xlink:href="#transformed-41005" transform="translate(100, 0)"></use><use xlink:href="#transformed-41005" transform="translate(-100, 100)"></use><use xlink:href="#transformed-41005" transform="translate(0, 100)"></use><use xlink:href="#transformed-41005" transform="translate(100, 100)"></use><use xlink:href="#transformed-69278" transform="translate(-100, -100)"></use><use xlink:href="#transformed-69278" transform="translate(0, -100)"></use><use xlink:href="#transformed-69278" transform="translate(100, -100)"></use><use xlink:href="#transformed-69278" transform="translate(-100, 0)"></use><use xlink:href="#transformed-69278" transform="translate(0, 0)"></use><use xlink:href="#transformed-69278" transform="translate(100, 0)"></use><use xlink:href="#transformed-69278" transform="translate(-100, 100)"></use><use xlink:href="#transformed-69278" transform="translate(0, 100)"></use><use xlink:href="#transformed-69278" transform="translate(100, 100)"></use><use xlink:href="#transformed-78722" transform="translate(-100, -100)"></use><use xlink:href="#transformed-78722" transform="translate(0, -100)"></use><use xlink:href="#transformed-78722" transform="translate(100, -100)"></use><use xlink:href="#transformed-78722" transform="translate(-100, 0)"></use><use xlink:href="#transformed-78722" transform="translate(0, 0)"></use><use xlink:href="#transformed-78722" transform="translate(100, 0)"></use><use xlink:href="#transformed-78722" transform="translate(-100, 100)"></use><use xlink:href="#transformed-78722" transform="translate(0, 100)"></use><use xlink:href="#transformed-78722" transform="translate(100, 100)"></use><use xlink:href="#transformed-29287" transform="translate(-100, -100)"></use><use xlink:href="#transformed-29287" transform="translate(0, -100)"></use><use xlink:href="#transformed-29287" transform="translate(100, -100)"></use><use xlink:href="#transformed-29287" transform="translate(-100, 0)"></use><use xlink:href="#transformed-29287" transform="translate(0, 0)"></use><use xlink:href="#transformed-29287" transform="translate(100, 0)"></use><use xlink:href="#transformed-29287" transform="translate(-100, 100)"></use><use xlink:href="#transformed-29287" transform="translate(0, 100)"></use><use xlink:href="#transformed-29287" transform="translate(100, 100)"></use><use xlink:href="#transformed-07765" transform="translate(-100, -100)"></use><use xlink:href="#transformed-07765" transform="translate(0, -100)"></use><use xlink:href="#transformed-07765" transform="translate(100, -100)"></use><use xlink:href="#transformed-07765" transform="translate(-100, 0)"></use><use xlink:href="#transformed-07765" transform="translate(0, 0)"></use><use xlink:href="#transformed-07765" transform="translate(100, 0)"></use><use xlink:href="#transformed-07765" transform="translate(-100, 100)"></use><use xlink:href="#transformed-07765" transform="translate(0, 100)"></use><use xlink:href="#transformed-07765" transform="translate(100, 100)"></use><use xlink:href="#transformed-87919" transform="translate(-100, -100)"></use><use xlink:href="#transformed-87919" transform="translate(0, -100)"></use><use xlink:href="#transformed-87919" transform="translate(100, -100)"></use><use xlink:href="#transformed-87919" transform="translate(-100, 0)"></use><use xlink:href="#transformed-87919" transform="translate(0, 0)"></use><use xlink:href="#transformed-87919" transform="translate(100, 0)"></use><use xlink:href="#transformed-87919" transform="translate(-100, 100)"></use><use xlink:href="#transformed-87919" transform="translate(0, 100)"></use><use xlink:href="#transformed-87919" transform="translate(100, 100)"></use></svg>